<?xml version="1.0" encoding="UTF-8" standalone="no"?>
<svg width="100px" height="100px" viewBox="0 0 100 100" version="1.1" xmlns="http://www.w3.org/2000/svg" xmlns:xlink="http://www.w3.org/1999/xlink">
    <!-- Generator: Sketch 50.2 (55047) - http://www.bohemiancoding.com/sketch -->
    <title>Artboard</title>
    <desc>Created with Sketch.</desc>
    <defs></defs>
    <g id="Artboard" stroke="none" stroke-width="1" fill="none" fill-rule="evenodd">
        <g id="noun_Core_35134" transform="translate(17.000000, 20.000000)" fill="#000000" fill-rule="nonzero">
            <g id="Group">
                <path d="M33.001,67.413 C15.046,67.413 0.439,52.423 0.439,33.997 C0.439,15.575 15.046,0.587 33.001,0.587 C33.115,0.587 33.228,0.591 33.341,0.595 L33.54,0.601 C38.179,1.275 42.04,10.151 43.472,23.263 C56.236,24.735 64.882,28.693 65.541,33.387 L65.552,33.621 C65.556,33.747 65.561,33.872 65.561,33.997 C65.561,52.423 50.954,67.413 33.001,67.413 Z M33.001,1.587 C15.598,1.587 1.439,16.126 1.439,33.997 C1.439,51.871 15.597,66.413 33.001,66.413 C50.403,66.413 64.561,51.871 64.561,33.997 C64.561,33.884 64.557,33.771 64.553,33.657 L64.546,33.469 C63.959,29.316 55.284,25.573 42.963,24.212 C42.729,24.186 42.545,24.001 42.521,23.767 C41.194,11.104 37.55,2.195 33.457,1.596 L33.305,1.595 C33.203,1.591 33.103,1.587 33.001,1.587 Z" id="Shape"></path>
                <path d="M23.011,44.756 C22.758,44.756 22.541,44.565 22.514,44.308 C22.165,40.961 21.988,37.493 21.988,33.997 C21.988,33.188 21.997,32.38 22.016,31.58 L22.031,31.12 C22.052,30.319 22.08,29.522 22.123,28.731 C22.169,27.826 22.222,27.009 22.285,26.201 C23.48,10.858 27.784,0.586 33,0.586 C37.903,0.586 42.02,9.654 43.486,23.69 C43.515,23.964 43.315,24.211 43.041,24.239 C42.771,24.269 42.52,24.069 42.492,23.794 C41.125,10.719 37.221,1.587 33,1.587 C28.482,1.587 24.397,11.948 23.288,26.223 C23.22,27.078 23.167,27.888 23.124,28.713 C23.079,29.567 23.051,30.355 23.031,31.149 L23.016,31.606 C22.996,32.398 22.988,33.197 22.988,33.998 C22.988,37.459 23.163,40.893 23.509,44.205 C23.538,44.479 23.339,44.726 23.064,44.754 C23.046,44.755 23.028,44.756 23.011,44.756 Z" id="Shape"></path>
                <path d="M32.999,45.34 C29.564,45.34 26.186,45.158 22.957,44.8 C22.767,44.779 22.606,44.652 22.541,44.472 C22.477,44.291 22.52,44.091 22.654,43.954 L28.034,38.432 C28.227,38.234 28.543,38.231 28.741,38.422 C28.939,38.615 28.943,38.932 28.75,39.129 L24.09,43.913 C27.72,44.269 31.596,44.39 35.335,44.31 L35.777,44.297 C36.551,44.274 37.316,44.245 38.076,44.202 C38.086,44.201 38.17,44.198 38.18,44.198 C38.952,44.156 39.74,44.101 40.519,44.038 C54.473,42.892 64.562,38.694 64.562,34.048 C64.562,29.705 55.669,25.692 42.937,24.287 C42.663,24.257 42.464,24.01 42.495,23.735 C42.525,23.46 42.773,23.264 43.047,23.293 C56.515,24.778 65.563,29.101 65.563,34.048 C65.563,39.312 55.321,43.827 40.657,45.028 C39.813,45.099 39.016,45.154 38.208,45.197 C38.199,45.198 38.115,45.201 38.106,45.201 C37.365,45.243 36.592,45.273 35.806,45.297 L35.364,45.31 C34.576,45.327 33.795,45.34 32.999,45.34 Z" id="Shape"></path>
                <path d="M32.459,39.241 C30.982,39.241 29.521,39.162 28.117,39.007 C28,38.994 27.908,38.902 27.896,38.784 C27.744,37.323 27.667,35.821 27.667,34.322 C27.667,33.971 27.672,33.622 27.684,33.273 C27.684,33.212 27.684,33.144 27.688,33.072 C27.696,32.731 27.706,32.382 27.73,32.04 C27.745,31.654 27.771,31.3 27.799,30.95 C28.247,25.21 29.826,19.443 32.344,19.443 C40.447,19.479 47.038,26.362 47.038,34.789 C47.038,34.86 47.039,34.894 47.04,34.91 L47.038,34.91 C47.047,34.974 47.042,35.047 47.038,35.122 C46.852,36.359 41.745,38.615 35.793,39.102 C35.772,39.106 35.752,39.109 35.733,39.109 C35.41,39.134 35.067,39.16 34.707,39.179 C34.406,39.197 34.12,39.207 33.835,39.218 L33.479,39.228 C33.148,39.235 32.808,39.241 32.459,39.241 Z M28.373,38.532 C30.026,38.705 31.798,38.762 33.475,38.728 L33.817,38.718 C34.098,38.708 34.379,38.697 34.654,38.68 C35.03,38.66 35.364,38.636 35.697,38.611 C35.71,38.608 35.722,38.606 35.735,38.605 C42.05,38.091 46.437,35.76 46.541,35.069 L46.546,34.966 C46.538,34.91 46.538,34.849 46.538,34.789 C46.538,26.637 40.17,19.977 32.343,19.943 C30.5,19.943 28.798,24.578 28.297,30.964 C28.27,31.334 28.244,31.681 28.23,32.037 C28.205,32.411 28.197,32.752 28.188,33.094 C28.184,33.164 28.184,33.222 28.184,33.282 C28.172,33.635 28.167,33.978 28.167,34.323 C28.167,35.735 28.236,37.151 28.373,38.532 Z" id="Shape"></path>
            </g>
        </g>
    </g>
</svg>